# xmcd
#
# Track frame offsets:
#	150
#	12500
#	25198
#	39080
#	49669
#	63664
#	77104
#	89090
#	104006
#	118835
#	133652
#	147888
#	162657
#	177412
#
# Disc length: 2530 seconds
#
# Revision: 0
# Processed by: cddbd v1.5.2PL0 Copyright (c) Steve Scherf et al.
# Submitted via: audiograbber 1.83.01
#
DISCID=c909e00e
DTITLE=Διάφοροι - Ελληνικά καί αγαπημένα
DYEAR=2004
DGENRE=
TTITLE0=Γρηγόρης Μπιθικώτσης,Χαρούλα Λαμπράκη - Πού'ναι τα χρόνια
TTITLE1=Στάτος Διονυσίου - Βρέχει βροχή στη στράτα μου
TTITLE2=Μανώλης Μητσιάς,Στράτος Διονυσίου - Αυτά τα χέρια
TTITLE3=Τόλης Βοσκόπουλος - Το φεγγάρι Πάνω Θε μου
TTITLE4=Ντίνα Χρονά - Τι σου'κανα καί πίνεις
TTITLE5=Βίκυ Μοσχολιού - Δεν ξέρω πόσο σ'αγαπώ
TTITLE6=Μανώλης Μητσιάς - Στην Ελευσίνα μιά φορά
TTITLE7=Τόλης Βοσκόπουλος,Μαρινέλλα - Πριν χαθεί τ'όνειρο μας
TTITLE8=Λίτσα Διαμάντη,Σωτήρης Χατζηαντωνίου - Συννεφιές
TTITLE9=Καίτη Γκρέυ - Αναψε το τσιγάρο
TTITLE10=Στέλιος Καζαντζίδης,Μαρινέλλα - Σήκω χόρεψε κουκλί μου
TTITLE11=Μανώλης Αγγελόπουλος,Καίτη Γκρέυ - Ανέβα στο τραπέζι
TTITLE12=Στέλιος Καζαντζίδης - Αυτή η νύχτα μένει
TTITLE13=Μανώλης Αγγελόπουλος,Απόστολος Καλδάρας - Οσο αξίζεις εσύ
EXTD=
EXTT0=
EXTT1=
EXTT2=
EXTT3=
EXTT4=
EXTT5=
EXTT6=
EXTT7=
EXTT8=
EXTT9=
EXTT10=
EXTT11=
EXTT12=
EXTT13=
PLAYORDER=
